<!-- <svg viewBox="0 0 59 44" fill="none" xmlns="http://www.w3.org/2000/svg">
  <path d="M1.81697 24.2684C1.20769 23.6667 0.865418 22.8508 0.865418 22.0001C0.865418 21.1493 1.20769 20.3334 1.81697 19.7318L20.2022 1.58225C20.502 1.27582 20.8606 1.0314 21.2572 0.863257C21.6537 0.695111 22.0801 0.606605 22.5117 0.602903C22.9432 0.599202 23.3712 0.680379 23.7706 0.841697C24.17 1.00301 24.5329 1.24124 24.838 1.54248C25.1432 1.84372 25.3845 2.20194 25.5479 2.59623C25.7113 2.99052 25.7935 3.41299 25.7898 3.83899C25.786 4.26499 25.6964 4.68599 25.5261 5.07742C25.3557 5.46885 25.1081 5.82287 24.7977 6.11883L11.9602 18.7917L55 18.7917C55.8619 18.7917 56.6886 19.1298 57.2981 19.7314C57.9076 20.3331 58.25 21.1492 58.25 22.0001C58.25 22.851 57.9076 23.667 57.2981 24.2687C56.6886 24.8704 55.8619 25.2084 55 25.2084L11.9602 25.2084L24.7977 37.8813C25.3897 38.4864 25.7173 39.2969 25.7099 40.1381C25.7025 40.9793 25.3607 41.784 24.7581 42.3788C24.1556 42.9737 23.3404 43.3111 22.4883 43.3184C21.6361 43.3257 20.8152 43.0023 20.2022 42.4179L1.81697 24.2684Z" fill="black" />
</svg> -->

<svg width="126" height="126" viewBox="0 0 126 126" fill="none" xmlns="http://www.w3.org/2000/svg">
  <!-- <g opacity="0.3"> -->
    <rect width="125" height="126" rx="20" transform="matrix(4.37114e-08 1 1 -4.37114e-08 0 0.5)" fill="white" />
    <path d="M35.817 65.2684C35.2077 64.6667 34.8654 63.8508 34.8654 63.0001C34.8654 62.1493 35.2077 61.3334 35.817 60.7318L54.2022 42.5822C54.502 42.2758 54.8606 42.0314 55.2572 41.8633C55.6537 41.6951 56.0801 41.6066 56.5117 41.6029C56.9432 41.5992 57.3712 41.6804 57.7706 41.8417C58.17 42.003 58.5329 42.2412 58.838 42.5425C59.1432 42.8437 59.3845 43.2019 59.5479 43.5962C59.7113 43.9905 59.7935 44.413 59.7898 44.839C59.786 45.265 59.6964 45.686 59.5261 46.0774C59.3557 46.4689 59.1081 46.8229 58.7977 47.1188L45.9602 59.7917L89 59.7917C89.8619 59.7917 90.6886 60.1298 91.2981 60.7314C91.9076 61.3331 92.25 62.1492 92.25 63.0001C92.25 63.851 91.9076 64.667 91.2981 65.2687C90.6886 65.8704 89.8619 66.2084 89 66.2084L45.9602 66.2084L58.7977 78.8813C59.3897 79.4864 59.7173 80.2969 59.7099 81.1381C59.7025 81.9793 59.3607 82.784 58.7581 83.3788C58.1556 83.9737 57.3404 84.3111 56.4883 84.3184C55.6361 84.3257 54.8152 84.0023 54.2022 83.4179L35.817 65.2684Z" fill="black" />
  <!-- </g> -->
</svg>