<svg width="126" height="126" viewBox="0 0 126 126" fill="none" xmlns="http://www.w3.org/2000/svg">
  <rect x="126" width="126" height="126" rx="20" transform="rotate(90 126 0)" fill="white" />
  <path d="M90.183 64.7684C90.7923 64.1667 91.1346 63.3508 91.1346 62.5001C91.1346 61.6493 90.7923 60.8334 90.183 60.2318L71.7977 42.0822C71.4979 41.7758 71.1393 41.5314 70.7428 41.3633C70.3463 41.1951 69.9198 41.1066 69.4883 41.1029C69.0568 41.0992 68.6288 41.1804 68.2294 41.3417C67.83 41.503 67.4671 41.7412 67.162 42.0425C66.8568 42.3437 66.6155 42.7019 66.4521 43.0962C66.2887 43.4905 66.2064 43.913 66.2102 44.339C66.2139 44.765 66.3036 45.186 66.4739 45.5774C66.6442 45.9689 66.8918 46.3229 67.2022 46.6188L80.0397 59.2917L37 59.2917C36.138 59.2917 35.3114 59.6298 34.7019 60.2314C34.0924 60.8331 33.75 61.6492 33.75 62.5001C33.75 63.351 34.0924 64.167 34.7019 64.7687C35.3114 65.3704 36.138 65.7084 37 65.7084L80.0397 65.7084L67.2022 78.3813C66.6102 78.9864 66.2827 79.7969 66.2901 80.6381C66.2975 81.4793 66.6393 82.284 67.2418 82.8788C67.8444 83.4737 68.6596 83.8111 69.5117 83.8184C70.3638 83.8257 71.1848 83.5023 71.7977 82.9179L90.183 64.7684Z" fill="black" />
</svg>