<svg viewBox="0 0 62 62" fill="none" xmlns="http://www.w3.org/2000/svg">
  <path d="M17.1206 32.7535C16.8179 32.4546 16.6478 32.0493 16.6478 31.6266C16.6478 31.204 16.8179 30.7987 17.1206 30.4998L26.2542 21.4832C26.4032 21.3309 26.5813 21.2095 26.7783 21.126C26.9753 21.0425 27.1872 20.9985 27.4016 20.9966C27.616 20.9948 27.8286 21.0351 28.027 21.1153C28.2254 21.1954 28.4057 21.3138 28.5573 21.4634C28.7089 21.6131 28.8288 21.791 28.9099 21.9869C28.9911 22.1828 29.032 22.3927 29.0301 22.6043C29.0283 22.8159 28.9837 23.0251 28.8991 23.2196C28.8145 23.414 28.6915 23.5899 28.5373 23.7369L22.1597 30.0328L43.5416 30.0328C43.9698 30.0328 44.3805 30.2007 44.6833 30.4996C44.9861 30.7985 45.1562 31.2039 45.1562 31.6266C45.1562 32.0494 44.9861 32.4548 44.6833 32.7537C44.3805 33.0526 43.9698 33.2205 43.5416 33.2205L22.1597 33.2205L28.5373 39.5164C28.8314 39.817 28.9941 40.2196 28.9904 40.6375C28.9868 41.0554 28.817 41.4552 28.5176 41.7507C28.2182 42.0462 27.8133 42.2138 27.3899 42.2175C26.9666 42.2211 26.5588 42.0605 26.2542 41.7701L17.1206 32.7535Z" fill="white" />
</svg>