<svg viewBox="0 0 62 62" fill="none" xmlns="http://www.w3.org/2000/svg">
  <path d="M44.8794 32.7535C45.1821 32.4546 45.3522 32.0493 45.3522 31.6266C45.3522 31.204 45.1821 30.7987 44.8794 30.4998L35.7458 21.4832C35.5968 21.3309 35.4187 21.2095 35.2217 21.126C35.0247 21.0425 34.8128 20.9985 34.5984 20.9966C34.384 20.9948 34.1714 21.0351 33.973 21.1153C33.7746 21.1954 33.5943 21.3138 33.4427 21.4634C33.2911 21.6131 33.1712 21.791 33.0901 21.9869C33.0089 22.1828 32.968 22.3927 32.9699 22.6043C32.9717 22.8159 33.0163 23.0251 33.1009 23.2196C33.1855 23.414 33.3085 23.5899 33.4627 23.7369L39.8403 30.0328L18.4584 30.0328C18.0302 30.0328 17.6195 30.2007 17.3167 30.4996C17.0139 30.7985 16.8438 31.2039 16.8438 31.6266C16.8438 32.0494 17.0139 32.4548 17.3167 32.7537C17.6195 33.0526 18.0302 33.2205 18.4584 33.2205L39.8403 33.2205L33.4627 39.5164C33.1686 39.817 33.0059 40.2196 33.0096 40.6375C33.0132 41.0554 33.183 41.4552 33.4824 41.7507C33.7818 42.0462 34.1867 42.2138 34.6101 42.2175C35.0334 42.2211 35.4412 42.0605 35.7458 41.7701L44.8794 32.7535Z" fill="white" />
</svg>